<?xml version="1.0" encoding="utf-8"?>
<!-- Generator: Adobe Illustrator 18.1.1, SVG Export Plug-In . SVG Version: 6.00 Build 0)  -->
<!DOCTYPE svg PUBLIC "-//W3C//DTD SVG 1.1//EN" "http://www.w3.org/Graphics/SVG/1.1/DTD/svg11.dtd">
<svg version="1.1" id="Capa_1" xmlns="http://www.w3.org/2000/svg" xmlns:xlink="http://www.w3.org/1999/xlink" x="0px" y="0px"
	 viewBox="-270 271 459 459" enable-background="new -270 271 459 459" xml:space="preserve">
<path fill="#1BD3F9" d="M71.7,271h-221.4c-24.4,0-44.3,23-44.3,51v408l155-76.5L116,730V322C116,294,96.1,271,71.7,271z M35.6,517.1
	l-69,66.5c-1.3,1.3-3,2-4.9,2s-3.5-0.7-4.9-2l-69.1-66.7c-0.7-0.6-1.8-1.6-3-2.9c-1.3-1.3-3.3-3.7-6.1-7.3
	c-2.8-3.5-5.3-7.1-7.5-10.8c-2.2-3.7-4.2-8.2-5.9-13.4c-1.7-5.2-2.6-10.3-2.6-15.3c0-16.2,4.7-28.9,14.1-38.1
	c9.4-9.2,22.3-13.7,38.9-13.7c4.6,0,9.2,0.8,14,2.4c4.8,1.6,9.2,3.7,13.3,6.4c4.1,2.7,7.6,5.2,10.6,7.6c3,2.4,5.8,4.9,8.4,7.5
	c2.7-2.7,5.5-5.2,8.4-7.5c3-2.4,6.5-4.9,10.6-7.6c4.1-2.7,8.5-4.8,13.3-6.4c4.8-1.6,9.4-2.4,14-2.4c16.5,0,29.5,4.6,38.9,13.7
	c9.4,9.2,14.1,21.9,14.1,38.1C60.9,483.6,52.5,500.2,35.6,517.1z"/>
</svg>
