<?xml version="1.0" encoding="utf-8"?>
<!-- Generator: Adobe Illustrator 18.1.1, SVG Export Plug-In . SVG Version: 6.00 Build 0)  -->
<!DOCTYPE svg PUBLIC "-//W3C//DTD SVG 1.1//EN" "http://www.w3.org/Graphics/SVG/1.1/DTD/svg11.dtd">
<svg version="1.1" id="Capa_1" xmlns="http://www.w3.org/2000/svg" xmlns:xlink="http://www.w3.org/1999/xlink" x="0px" y="0px"
	 viewBox="-474 475.2 50.8 50.8" enable-background="new -474 475.2 50.8 50.8" xml:space="preserve">
<g>
	<g>
		<g>
			<path fill="#EF8D3C" d="M-431.5,482.4h-14.2v0h-23.9v9.2c0,9.9,8,17.9,17.9,17.9c7.3,0,13.5-4.4,16.4-10.6h3.9
				c4.6,0,8.3-3.7,8.3-8.3C-423.2,486.2-426.9,482.4-431.5,482.4z M-431.5,494.7h-2.5c0.2-1,0.3-2,0.3-3v-4.9h2.3
				c2.2,0,3.9,1.8,3.9,3.9S-429.3,494.7-431.5,494.7z"/>
			<path fill="#EF8D3C" d="M-470.5,517.3c0.5,0.8,1.7,1.5,2.7,1.5h32.4c1,0,2.2-0.7,2.7-1.5l3.5-5.7H-474L-470.5,517.3z"/>
		</g>
	</g>
</g>
</svg>
