<?xml version="1.0" encoding="utf-8"?>
<!-- Generator: Adobe Illustrator 18.1.1, SVG Export Plug-In . SVG Version: 6.00 Build 0)  -->
<!DOCTYPE svg PUBLIC "-//W3C//DTD SVG 1.1//EN" "http://www.w3.org/Graphics/SVG/1.1/DTD/svg11.dtd">
<svg version="1.1" id="Capa_1" xmlns="http://www.w3.org/2000/svg" xmlns:xlink="http://www.w3.org/1999/xlink" x="0px" y="0px"
	 viewBox="-451 453.1 95.9 95.9" enable-background="new -451 453.1 95.9 95.9" xml:space="preserve">
<g>
	<path fill="#F46060" d="M-388.2,501l32.5-32.5c0.8-0.8,0.8-2,0-2.8l-12-12c-0.4-0.4-0.9-0.6-1.4-0.6c-0.5,0-1,0.2-1.4,0.6
		l-32.5,32.5l-32.5-32.5c-0.8-0.8-2.1-0.8-2.8,0l-12,12c-0.8,0.8-0.8,2,0,2.8l32.5,32.5l-32.5,32.5c-0.8,0.8-0.8,2,0,2.8l12,12
		c0.4,0.4,0.9,0.6,1.4,0.6s1-0.2,1.4-0.6l32.5-32.5l32.5,32.5c0.4,0.4,0.9,0.6,1.4,0.6c0.5,0,1-0.2,1.4-0.6l12-12
		c0.8-0.8,0.8-2,0-2.8L-388.2,501z"/>
</g>
</svg>
