<?xml version="1.0" encoding="utf-8"?>
<!-- Generator: Adobe Illustrator 18.1.1, SVG Export Plug-In . SVG Version: 6.00 Build 0)  -->
<!DOCTYPE svg PUBLIC "-//W3C//DTD SVG 1.1//EN" "http://www.w3.org/Graphics/SVG/1.1/DTD/svg11.dtd">
<svg version="1.1" id="Capa_1" xmlns="http://www.w3.org/2000/svg" xmlns:xlink="http://www.w3.org/1999/xlink" x="0px" y="0px"
	 viewBox="-314 316.2 369.8 369.8" enable-background="new -314 316.2 369.8 369.8" xml:space="preserve">
<g>
	<g>
		<g>
			<path fill="#FFFFFF" d="M6.8,456.6L5.1,456l-6.9-16.4l0.7-1.7c20.8-47.2,19.4-48.6,15.9-52l-27.8-27.1c-1.1-1.1-3.1-1.9-4.8-1.9
				c-1.6,0-6.3,0-47.3,18.6l-1.6,0.7l-16.9-6.8l-0.7-1.7c-19.3-47.7-21.3-47.7-26.1-47.7h-39.2c-4.8,0-7,0-24.8,47.8l-0.7,1.7
				l-16.8,6.9l-1.6-0.7c-27.8-11.7-44-17.6-48.2-17.6c-1.7,0-3.7,0.8-4.9,1.9l-27.8,27.2c-3.5,3.5-5,4.9,16.9,51.1l0.8,1.7
				l-6.9,16.4l-1.7,0.7c-48.9,18.9-48.9,20.7-48.9,25.6v38.4c0,4.9,0,7,49,24.5l1.8,0.6l6.9,16.3l-0.7,1.7
				c-20.8,47.2-19.5,48.5-15.9,52l27.7,27.1c1.2,1.1,3.2,1.9,4.9,1.9c1.6,0,6.3,0,47.3-18.6l1.6-0.8l16.9,6.8l0.7,1.7
				c19.3,47.7,21.3,47.7,26.1,47.7h39.2c4.9,0,7,0,24.9-47.9l0.7-1.7l16.9-6.8l1.6,0.7c27.7,11.7,43.9,17.7,48.1,17.7
				c1.7,0,3.7-0.7,4.9-1.9L16.1,615c3.5-3.5,5-4.9-17-51.1l-0.8-1.7l6.9-16.3l1.6-0.6c48.9-19,48.9-20.8,48.9-25.8v-38.4
				C55.8,476.2,55.8,474.1,6.8,456.6z M-129.1,563.4c-35,0-63.5-28-63.5-62.3c0-34.3,28.5-62.3,63.5-62.3c35,0,63.5,27.9,63.5,62.3
				C-65.6,535.4-94.1,563.4-129.1,563.4z"/>
		</g>
	</g>
</g>
</svg>
