<?xml version="1.0" encoding="utf-8"?>
<!-- Generator: Adobe Illustrator 18.1.1, SVG Export Plug-In . SVG Version: 6.00 Build 0)  -->
<!DOCTYPE svg PUBLIC "-//W3C//DTD SVG 1.1//EN" "http://www.w3.org/Graphics/SVG/1.1/DTD/svg11.dtd">
<svg version="1.1" id="Capa_1" xmlns="http://www.w3.org/2000/svg" xmlns:xlink="http://www.w3.org/1999/xlink" x="0px" y="0px"
	 viewBox="-328 329.5 342.5 342.5" enable-background="new -328 329.5 342.5 342.5" xml:space="preserve">
<g>
	<path fill="#FFFFFF" d="M-156.7,329.5c-94.4,0-171.3,76.8-171.3,171.2c0,94.4,76.8,171.3,171.3,171.3
		c94.4,0,171.3-76.8,171.3-171.3C14.5,406.3-62.3,329.5-156.7,329.5z M-82.6,465.7l-89.7,89.7c-2.7,2.7-6.2,4-9.8,4
		c-3.5,0-7.1-1.4-9.8-4l-39-39c-5.4-5.4-5.4-14.1,0-19.5c5.4-5.4,14.1-5.4,19.5,0l29.3,29.3l79.9-79.9c5.4-5.4,14.1-5.4,19.5,0
		C-77.2,451.5-77.2,460.3-82.6,465.7z"/>
</g>
</svg>
