<?xml version="1.0" encoding="utf-8"?>
<!-- Generator: Adobe Illustrator 18.1.1, SVG Export Plug-In . SVG Version: 6.00 Build 0)  -->
<!DOCTYPE svg PUBLIC "-//W3C//DTD SVG 1.1//EN" "http://www.w3.org/Graphics/SVG/1.1/DTD/svg11.dtd">
<svg version="1.1" id="Capa_1" xmlns="http://www.w3.org/2000/svg" xmlns:xlink="http://www.w3.org/1999/xlink" x="0px" y="0px"
	 viewBox="-103 105 792 792" enable-background="new -103 105 792 792" xml:space="preserve">
<g>
	<g id="_x33__30_">
		<g>
			<path fill="#C1C1C1" d="M441.5,204v495c0,82-66.5,148.5-148.5,148.5S144.5,781,144.5,699V253.5c0-54.7,44.3-99,99-99
				s99,44.3,99,99V699c0,27.3-22.2,49.5-49.5,49.5c-27.3,0-49.5-22.2-49.5-49.5V303H194v396c0,54.7,44.3,99,99,99s99-44.3,99-99
				V253.5c0-82-66.5-148.5-148.5-148.5S95,171.5,95,253.5v470.3C107.2,821.4,192,897,293,897s185.8-75.6,198-173.3V204H441.5z"/>
		</g>
	</g>
</g>
</svg>
