<?xml version="1.0" encoding="utf-8"?>
<!-- Generator: Adobe Illustrator 18.1.1, SVG Export Plug-In . SVG Version: 6.00 Build 0)  -->
<!DOCTYPE svg PUBLIC "-//W3C//DTD SVG 1.1//EN" "http://www.w3.org/Graphics/SVG/1.1/DTD/svg11.dtd">
<svg version="1.1" id="Capa_1" xmlns="http://www.w3.org/2000/svg" xmlns:xlink="http://www.w3.org/1999/xlink" x="0px" y="0px"
	 viewBox="0 0 1000 1000" enable-background="new 0 0 1000 1000" xml:space="preserve">
<g>
	<path fill="#E84B5A" d="M500,0C223.9,0,0,223.9,0,500s223.9,500,500,500s500-223.9,500-500S776.1,0,500,0z M500,819.2
		c-39.1,0-65.8-30.1-65.8-69.2c0-40.2,27.9-69.2,65.8-69.2c40.1,0,65.8,29,65.8,69.2C565.8,789.1,540.1,819.2,500,819.2z M525.9,555
		c-10,34-41.3,34.5-51.8,0c-12-39.8-54.8-191-54.8-289.3c0-129.6,162.1-130.2,162.1,0C581.4,364.6,536.3,519.7,525.9,555z"/>
</g>
</svg>
