<?xml version="1.0" encoding="utf-8"?>
<!-- Generator: Adobe Illustrator 18.1.1, SVG Export Plug-In . SVG Version: 6.00 Build 0)  -->
<!DOCTYPE svg PUBLIC "-//W3C//DTD SVG 1.1//EN" "http://www.w3.org/Graphics/SVG/1.1/DTD/svg11.dtd">
<svg version="1.1" id="Capa_1" xmlns="http://www.w3.org/2000/svg" xmlns:xlink="http://www.w3.org/1999/xlink" x="0px" y="0px"
	 viewBox="-476 477 47 47" enable-background="new -476 477 47 47" xml:space="preserve">
<g>
	<g id="Layer_1_127_">
		<g>
			<path fill="#FFFFFF" d="M-429.6,520.4l-7.2-7.2c-0.5-0.5-1.1-0.7-1.7-0.6l-1-1c3.4-3.8,5.2-8.6,5.2-13.7c0-5.6-2.2-10.8-6.1-14.7
				c-3.9-3.9-9.2-6.1-14.7-6.1c-5.6,0-10.8,2.2-14.7,6.1c-8.1,8.1-8.1,21.3,0,29.5c3.9,3.9,9.2,6.1,14.7,6.1c5.1,0,9.9-1.9,13.7-5.2
				l1,1c-0.1,0.6,0.1,1.3,0.6,1.7l7.2,7.2c0.4,0.4,1,0.6,1.5,0.6c0.5,0,1.1-0.2,1.5-0.6C-428.8,522.5-428.8,521.2-429.6,520.4z
				 M-455.2,514.4c-4.4,0-8.6-1.7-11.7-4.8c-6.5-6.5-6.5-17,0-23.4c3.1-3.1,7.3-4.9,11.7-4.9c4.4,0,8.6,1.7,11.7,4.9
				c3.1,3.1,4.8,7.3,4.8,11.7c0,4.4-1.7,8.6-4.9,11.7C-446.6,512.7-450.8,514.4-455.2,514.4z"/>
			<path fill="#FFFFFF" d="M-442.7,502.4l-6.4-5.3c-0.3-0.3-0.8-0.3-1.1-0.1c-0.4,0.2-0.6,0.6-0.6,1v2.3h-5.3
				c-0.6,0-1.1,0.5-1.1,1.1v4c0,0.6,0.5,1.1,1.1,1.1h5.3v2.3c0,0.4,0.2,0.8,0.6,1c0.1,0.1,0.3,0.1,0.5,0.1c0.2,0,0.5-0.1,0.7-0.2
				l6.4-5.3c0.2-0.2,0.4-0.5,0.4-0.8C-442.4,502.9-442.5,502.6-442.7,502.4z"/>
			<path fill="#FFFFFF" d="M-453,494.5v-4c0-0.6-0.5-1.1-1.1-1.1h-5.3v-2.3c0-0.4-0.2-0.8-0.6-1c-0.4-0.2-0.8-0.1-1.1,0.1l-6.4,5.3
				c-0.2,0.2-0.4,0.5-0.4,0.8c0,0.3,0.1,0.6,0.4,0.8l6.4,5.3c0.2,0.2,0.4,0.2,0.7,0.2c0.2,0,0.3,0,0.5-0.1c0.4-0.2,0.6-0.6,0.6-1
				v-2.3h5.3C-453.5,495.6-453,495.1-453,494.5z"/>
		</g>
	</g>
</g>
</svg>
