<?xml version="1.0" encoding="utf-8"?>
<!-- Generator: Adobe Illustrator 18.1.1, SVG Export Plug-In . SVG Version: 6.00 Build 0)  -->
<!DOCTYPE svg PUBLIC "-//W3C//DTD SVG 1.1//EN" "http://www.w3.org/Graphics/SVG/1.1/DTD/svg11.dtd">
<svg version="1.1" id="Capa_1" xmlns="http://www.w3.org/2000/svg" xmlns:xlink="http://www.w3.org/1999/xlink" x="0px" y="0px"
	 viewBox="0 0 1000 1000" enable-background="new 0 0 1000 1000" xml:space="preserve">
<g>
	<g id="Layer_1_127_">
		<g>
			<path fill="#23A9C4" d="M985.9,921.3L832.7,768.1c-10.6-10.6-23.4-14.9-36.2-12.8L775.3,734c72.3-80.9,110.6-183,110.6-291.5
				c0-119.1-46.8-229.8-129.8-312.8C673.1,46.8,560.4,0,443.4,0C324.2,0,213.6,46.8,130.6,129.8c-172.3,172.3-172.3,453.2,0,627.7
				c83,83,195.7,129.8,312.8,129.8c108.5,0,210.6-40.4,291.5-110.6l21.3,21.3c-2.1,12.8,2.1,27.7,12.8,36.2l153.2,153.2
				c8.5,8.5,21.3,12.8,31.9,12.8s23.4-4.3,31.9-12.8C1002.9,966,1002.9,938.3,985.9,921.3z M441.2,793.6
				c-93.6,0-183-36.2-248.9-102.1C54,553.2,54,329.8,192.3,193.6c66-66,155.3-104.3,248.9-104.3c93.6,0,183,36.2,248.9,104.3
				c66,66,102.1,155.3,102.1,248.9c0,93.6-36.2,183-104.3,248.9C624.2,757.4,534.8,793.6,441.2,793.6z"/>
			<path fill="#23A9C4" d="M707.2,538.3L571,425.5c-6.4-6.4-17-6.4-23.4-2.1c-8.5,4.3-12.8,12.8-12.8,21.3v48.9H422.1
				c-12.8,0-23.4,10.6-23.4,23.4v85.1c0,12.8,10.6,23.4,23.4,23.4h112.8v48.9c0,8.5,4.3,17,12.8,21.3c2.1,2.1,6.4,2.1,10.6,2.1
				c4.3,0,10.6-2.1,14.9-4.3l136.2-112.8c4.3-4.3,8.5-10.6,8.5-17C713.6,548.9,711.4,542.6,707.2,538.3z"/>
			<path fill="#23A9C4" d="M488,370.2v-85.1c0-12.8-10.6-23.4-23.4-23.4H351.9v-48.9c0-8.5-4.3-17-12.8-21.3
				c-8.5-4.3-17-2.1-23.4,2.1L179.5,306.4c-4.3,4.3-8.5,10.6-8.5,17c0,6.4,2.1,12.8,8.5,17l136.2,112.8c4.3,4.3,8.5,4.3,14.9,4.3
				c4.3,0,6.4,0,10.6-2.1c8.5-4.3,12.8-12.8,12.8-21.3v-48.9h112.8C477.4,393.6,488,383,488,370.2z"/>
		</g>
	</g>
</g>
</svg>
