<?xml version="1.0" encoding="utf-8"?>
<!-- Generator: Adobe Illustrator 18.1.1, SVG Export Plug-In . SVG Version: 6.00 Build 0)  -->
<!DOCTYPE svg PUBLIC "-//W3C//DTD SVG 1.1//EN" "http://www.w3.org/Graphics/SVG/1.1/DTD/svg11.dtd">
<svg version="1.1" id="Capa_1" xmlns="http://www.w3.org/2000/svg" xmlns:xlink="http://www.w3.org/1999/xlink" x="0px" y="0px"
	 viewBox="0 0 1000 1000" enable-background="new 0 0 1000 1000" xml:space="preserve">
<g>
	<path fill="#FFFFFF" d="M654.3,500l338.9-338.9c8.3-8.3,8.3-20.9,0-29.2L868.1,6.8c-4.2-4.2-9.4-6.3-14.6-6.3s-10.4,2.1-14.6,6.3
		L500,345.7L161.1,6.8c-8.3-8.3-21.9-8.3-29.2,0L6.8,131.9c-8.3,8.3-8.3,20.9,0,29.2L345.7,500L6.8,838.9c-8.3,8.3-8.3,20.9,0,29.2
		l125.1,125.1c4.2,4.2,9.4,6.3,14.6,6.3s10.4-2.1,14.6-6.3L500,654.3l338.9,338.9c4.2,4.2,9.4,6.3,14.6,6.3s10.4-2.1,14.6-6.3
		l125.1-125.1c8.3-8.3,8.3-20.9,0-29.2L654.3,500z"/>
</g>
</svg>
