<?xml version="1.0" encoding="utf-8"?>
<!-- Generator: Adobe Illustrator 18.1.1, SVG Export Plug-In . SVG Version: 6.00 Build 0)  -->
<!DOCTYPE svg PUBLIC "-//W3C//DTD SVG 1.1//EN" "http://www.w3.org/Graphics/SVG/1.1/DTD/svg11.dtd">
<svg version="1.1" id="Capa_1" xmlns="http://www.w3.org/2000/svg" xmlns:xlink="http://www.w3.org/1999/xlink" x="0px" y="0px"
	 viewBox="0 0 1000 1000" enable-background="new 0 0 1000 1000" xml:space="preserve">
<g>
	<path fill="#FFFFFF" d="M922.1,9.3l-86.2,82.9c-167.1-118-390.4-122.8-562.5-9.6C161.7,156,85.4,268.3,58.4,399
		c-27,130.7-1.5,264.1,71.8,375.6C203.6,886.1,316,962.5,446.7,989.5c34,7,68.2,10.5,102.2,10.5c96.5,0,190.9-28.1,273.4-82.3
		c9.9-6.5,12.6-19.8,6.1-29.6c-6.6-10-19.9-12.6-29.7-6.1c-102,67.1-223.9,90.4-343.5,65.6C335.7,922.8,233,853.1,166,751.1
		c-67.1-102-90.4-223.9-65.7-343.4c24.7-119.5,94.4-222.2,196.4-289.2C452,16.5,652.4,19.1,804.4,122.3l-83.3,80
		c-17,16.4-11.7,30,12,30.5l171.8,3.4c23.7,0.5,43.2-18.3,43.7-42l3.4-171.8C952.5-1.3,939.1-7.1,922.1,9.3z"/>
</g>
</svg>
