<?xml version="1.0" encoding="utf-8"?>
<!-- Generator: Adobe Illustrator 18.1.1, SVG Export Plug-In . SVG Version: 6.00 Build 0)  -->
<!DOCTYPE svg PUBLIC "-//W3C//DTD SVG 1.1//EN" "http://www.w3.org/Graphics/SVG/1.1/DTD/svg11.dtd">
<svg version="1.1" id="Capa_1" xmlns="http://www.w3.org/2000/svg" xmlns:xlink="http://www.w3.org/1999/xlink" x="0px" y="0px"
	 viewBox="0 0 1000 1000" enable-background="new 0 0 1000 1000" xml:space="preserve">
<g>
	<g>
		<g>
			<path fill="#23A9C4" d="M867.9,390.5l-4.6-1.6l-18.7-44.3l1.9-4.6c56.2-127.6,52.5-131.4,43-140.6L814.3,126c-3-3-8.4-5.1-13-5.1
				c-4.3,0-17,0-127.9,50.3l-4.3,1.9l-45.7-18.4l-1.9-4.6c-52.2-129-57.6-129-70.6-129H445c-13,0-18.9,0-67.1,129.3l-1.9,4.6
				l-45.4,18.7l-4.3-1.9c-75.2-31.6-119-47.6-130.3-47.6c-4.6,0-10,2.2-13.3,5.1l-75.2,73.6C98,212.3,94,216.1,153.2,341l2.2,4.6
				l-18.7,44.3l-4.6,1.9C-0.1,442.9-0.1,447.8-0.1,461.1v103.8c0,13.3,0,18.9,132.5,66.3l4.9,1.6l18.7,44.1l-1.9,4.6
				c-56.2,127.6-52.7,131.2-43,140.6l74.9,73.3c3.2,3,8.7,5.1,13.3,5.1c4.3,0,17,0,127.9-50.3l4.3-2.2l45.7,18.4l1.9,4.6
				c52.2,129,57.6,129,70.6,129h106c13.3,0,18.9,0,67.3-129.5l1.9-4.6l45.7-18.4l4.3,1.9c74.9,31.6,118.7,47.9,130.1,47.9
				c4.6,0,10-1.9,13.3-5.1l74.9-73.3c9.5-9.5,13.5-13.3-46-138.2l-2.2-4.6l18.7-44.1l4.3-1.6c132.2-51.4,132.2-56.2,132.2-69.8
				V456.7C1000.4,443.5,1000.4,437.8,867.9,390.5z M500.4,679.3c-94.6,0-171.7-75.7-171.7-168.5s77.1-168.5,171.7-168.5
				s171.7,75.4,171.7,168.5C672.1,603.6,595,679.3,500.4,679.3z"/>
		</g>
	</g>
</g>
</svg>
