<?xml version="1.0" encoding="utf-8"?>
<!-- Generator: Adobe Illustrator 18.1.1, SVG Export Plug-In . SVG Version: 6.00 Build 0)  -->
<!DOCTYPE svg PUBLIC "-//W3C//DTD SVG 1.1//EN" "http://www.w3.org/Graphics/SVG/1.1/DTD/svg11.dtd">
<svg version="1.1" id="Capa_1" xmlns="http://www.w3.org/2000/svg" xmlns:xlink="http://www.w3.org/1999/xlink" x="0px" y="0px"
	 viewBox="0 0 1000 1000" enable-background="new 0 0 1000 1000" xml:space="preserve">
<g>
	<g>
		<g>
			<path fill="#9B49EA" d="M500.1,0C224.3,0,0,224.3,0,500s224.3,500,500.1,500c275.6,0,499.9-224.3,499.9-500S775.7,0,500.1,0z
				 M500.1,964.1C244.1,964.1,35.9,755.9,35.9,500c0-255.9,208.2-464.1,464.1-464.1c255.9,0,464.1,208.2,464.1,464.1
				C964.1,755.9,755.9,964.1,500.1,964.1z"/>
		</g>
		<g>
			<path fill="#9B49EA" d="M500,135c-9.9,0-17.9,8-17.9,17.9V482H188.1c-9.9,0-17.9,8-17.9,18c0,9.9,8,18,17.9,18H500
				c10,0,17.9-8,17.9-18V153C517.9,143.1,510,135,500,135z"/>
		</g>
	</g>
</g>
</svg>
