<?xml version="1.0" encoding="utf-8"?>
<!-- Generator: Adobe Illustrator 18.1.1, SVG Export Plug-In . SVG Version: 6.00 Build 0)  -->
<!DOCTYPE svg PUBLIC "-//W3C//DTD SVG 1.1//EN" "http://www.w3.org/Graphics/SVG/1.1/DTD/svg11.dtd">
<svg version="1.1" id="Capa_1" xmlns="http://www.w3.org/2000/svg" xmlns:xlink="http://www.w3.org/1999/xlink" x="0px" y="0px"
	 viewBox="-237 239.2 523.8 523.8" enable-background="new -237 239.2 523.8 523.8" xml:space="preserve">
<g>
	<path fill="#58CC6E" d="M282.6,349.1L176.8,243.5c-5.7-5.7-15.1-5.7-20.8,0l-12.2,12.2c-5.7,5.7-5.7,15.1,0,20.8l4.9,4.9L28.2,402
		c-29.1-15.9-66.2-11.6-90.7,12.9l-43.5,43.5c-5.7,5.7-5.7,15.1,0,20.8l53.3,53.3L-233,731.9c-5.4,6-5.3,15.6,0.5,21.3l5.3,5.3
		c5.7,5.7,15.3,6,21.3,0.5L-6.8,578.8l52.9,52.9c5.7,5.7,15.1,5.7,20.8,0l43.5-43.5c24.5-24.5,28.9-61.2,13.3-90.3l120.6-120.6
		l4.9,4.9c5.7,5.7,15.1,5.7,20.8,0l12.2-12.2C288.3,364.3,288.3,355,282.6,349.1z"/>
</g>
</svg>
