<?xml version="1.0" encoding="iso-8859-1"?>
<!-- Generator: Adobe Illustrator 18.1.1, SVG Export Plug-In . SVG Version: 6.00 Build 0)  -->
<svg version="1.1" id="Capa_1" xmlns="http://www.w3.org/2000/svg" xmlns:xlink="http://www.w3.org/1999/xlink" x="0px" y="0px"
	 viewBox="0 0 174.239 174.239" style="enable-background:new 0 0 174.239 174.239;" xml:space="preserve">
<path d="M96.033,79.444c0-1.497,0-5.173,0-8.168v-5.538c0-2.995,2.049-4.102,4.554-2.46l34.298,27.462
	c2.505,1.642,2.507,4.332,0.005,5.978l-34.309,27.557c-2.502,1.646-4.548,0.543-4.548-2.452v-5.66c0-2.995,0-6.67,0-8.167
	c0-1.497-2.436-2.461-5.414-2.142c0,0-49.807,5.33-49.807,68.384h127.983c2.995,0,5.445-2.45,5.445-5.445V5.445
	c0-2.995-2.45-5.445-5.445-5.445H5.445C2.45,0,0,2.45,0,5.445v111.209c0,2.995,0,7.895,0,10.89v5.443
	c21.188-52.6,90.59-50.949,90.59-50.949C93.584,82.108,96.033,80.942,96.033,79.444z"/>
<g>
</g>
<g>
</g>
<g>
</g>
<g>
</g>
<g>
</g>
<g>
</g>
<g>
</g>
<g>
</g>
<g>
</g>
<g>
</g>
<g>
</g>
<g>
</g>
<g>
</g>
<g>
</g>
<g>
</g>
</svg>
